<svg width="96" height="96" viewBox="0 0 96 96" fill="none" xmlns="http://www.w3.org/2000/svg">
<defs>
<filter id="filter0_f">
<feFlood flood-opacity="0" result="BackgroundImageFix"/>
<feBlend mode="normal" in="SourceGraphic" in2="BackgroundImageFix" result="shape"/>
<feGaussianBlur stdDeviation="2" result="effect1_foregroundBlur"/>
</filter>
<filter id="filter1_f">
<feFlood flood-opacity="0" result="BackgroundImageFix"/>
<feBlend mode="normal" in="SourceGraphic" in2="BackgroundImageFix" result="shape"/>
<feGaussianBlur stdDeviation="0.19" result="effect1_foregroundBlur"/>
</filter>
<linearGradient id="paint0_linear" x1="59.5" y1="72.0001" x2="31.5" y2="3.50013" gradientUnits="userSpaceOnUse">
<stop stop-color="#742774"/>
<stop offset="1" stop-color="#BB35A4"/>
</linearGradient>
<linearGradient id="paint1_linear" x1="40" y1="24.0001" x2="63" y2="72.0001" gradientUnits="userSpaceOnUse">
<stop stop-color="#E48CC7"/>
<stop offset="1" stop-color="#D467B9"/>
</linearGradient>
<linearGradient id="paint2_linear" x1="55" y1="38.5001" x2="62" y2="60" gradientUnits="userSpaceOnUse">
<stop stop-color="#E9A1CB"/>
<stop offset="1" stop-color="#E48CC7"/>
</linearGradient>
<clipPath id="clip0">
<rect width="48" height="48" fill="white" transform="translate(24 24)"/>
</clipPath>
<clipPath id="clip1">
<rect width="48" height="48" fill="white" transform="translate(24 24)"/>
</clipPath>
<clipPath id="clip2">
<rect width="48" height="48" fill="white" transform="translate(24 24.0001)"/>
</clipPath>
</defs>
<g clip-path="url(#clip0)">
<g clip-path="url(#clip1)">
<g clip-path="url(#clip2)">
<mask id="mask0" mask-type="alpha" maskUnits="userSpaceOnUse" x="23" y="24" width="49" height="48">
<path d="M24.7286 46.0245C23.7389 47.1556 23.7389 48.8444 24.7286 49.9755L42.4948 70.2798C43.2917 71.1905 44.7083 71.1905 45.5052 70.2798L47.4184 68.0933L49.5252 70.3917C50.3179 71.2564 51.6811 71.2564 52.4738 70.3917L71.1413 50.0272C72.1926 48.8802 72.1926 47.1198 71.1413 45.9728L52.4738 25.6083C51.6811 24.7436 50.3179 24.7436 49.5252 25.6083L47.4184 27.9067L45.5052 25.7202C44.7083 24.8095 43.2917 24.8095 42.4948 25.7202L24.7286 46.0245Z" fill="white"/>
</mask>
<g mask="url(#mask0)">
<path d="M44 72L23 48L44 24L65 48L44 72Z" fill="url(#paint0_linear)"/>
<g filter="url(#filter0_f)">
<path d="M50.9995 25L72.9995 49L50.9995 73L41.2383 62.3514C40.5374 61.5868 40.5374 60.4132 41.2383 59.6485L49.7607 50.3514C50.4616 49.5868 50.4616 48.4132 49.7607 47.6485L41.2383 38.3514C40.5374 37.5868 40.5374 36.4132 41.2383 35.6485L50.9995 25Z" fill="black" fill-opacity="0.32"/>
</g>
<g filter="url(#filter1_f)">
<path d="M50.9995 24.1901L72.9995 48.1901L50.9995 72.1901L41.2383 61.5415C40.5374 60.7769 40.5374 59.6033 41.2383 58.8386L49.7607 49.5415C50.4616 48.7769 50.4616 47.6033 49.7607 46.8386L41.2383 37.5415C40.5374 36.7769 40.5374 35.6033 41.2383 34.8386L50.9995 24.1901Z" fill="black" fill-opacity="0.24"/>
</g>
<path d="M50.9995 24L72.9995 48L50.9995 72L41.2383 61.3514C40.5374 60.5868 40.5374 59.4132 41.2383 58.6485L49.7607 49.3514C50.4616 48.5868 50.4616 47.4132 49.7607 46.6485L41.2383 37.3514C40.5374 36.5868 40.5374 35.4132 41.2383 34.6485L50.9995 24Z" fill="url(#paint1_linear)"/>
<path d="M60.5257 37.6083C61.3184 36.7436 62.6816 36.7436 63.4743 37.6083L73 48L63.4743 58.3917C62.6816 59.2564 61.3184 59.2564 60.5257 58.3917L52.8582 50.0272C51.8069 48.8802 51.8069 47.1198 52.8582 45.9728L60.5257 37.6083Z" fill="url(#paint2_linear)"/>
</g>
</g>
</g>
</g>
</svg>
