<svg version="1.1" viewBox="0 0 32 32" xmlns="http://www.w3.org/2000/svg">
 <path d="m0 0h32v32h-32z" fill="#916f6f"/>
 <g fill="#fff">
  <path d="m16.023 11.5q0.94531 0 1.7734 0.28906 0.82812 0.28906 1.4453 0.83594 0.61719 0.54688 0.96875 1.3281 0.35938 0.78125 0.35938 1.7656 0 0.51562-0.14062 1.0781-0.13281 0.55469-0.42188 1.0156-0.28125 0.45312-0.72656 0.75-0.4375 0.29688-1.0469 0.29688-0.67188 0-0.96875-0.36719-0.29688-0.36719-0.30469-1.0078h-0.03125q-0.17969 0.61719-0.58594 1-0.39844 0.375-1.0703 0.375-0.46094 0-0.79688-0.17969-0.32812-0.1875-0.54688-0.48438-0.21094-0.30469-0.3125-0.6875-0.10156-0.39062-0.10156-0.80469 0-0.54688 0.14062-1.0938 0.14844-0.54688 0.44531-0.97656 0.29688-0.42969 0.75-0.69531 0.46094-0.27344 1.0859-0.27344 0.17969 0 0.35938 0.04687 0.1875 0.04687 0.35156 0.14062 0.16406 0.09375 0.28906 0.23438t0.1875 0.32812v-0.039058q0.01563-0.15625 0.02344-0.3125 0.01563-0.15625 0.03125-0.3125h0.72656l-0.1875 2.2344q-0.02344 0.25-0.05469 0.50781-0.031251 0.25781-0.031251 0.50781 0 0.17188 0.01563 0.38281 0.02344 0.20312 0.09375 0.39062 0.07031 0.17969 0.20312 0.30469 0.14062 0.11719 0.375 0.11719 0.28125 0 0.5-0.11719 0.21875-0.125 0.375-0.32031 0.16406-0.19531 0.27344-0.44531 0.10938-0.25781 0.17969-0.52344 0.07031-0.27344 0.09375-0.53906 0.03125-0.26562 0.03125-0.48438 0-0.85938-0.28125-1.5312t-0.78906-1.1328q-0.5-0.46094-1.2031-0.70312-0.69531-0.24219-1.5234-0.24219-0.89844 0-1.6328 0.33594-0.72656 0.33594-1.25 0.91406-0.51562 0.57031-0.79688 1.3359t-0.28125 1.6328q0 0.89844 0.27344 1.6328 0.28125 0.72656 0.79688 1.2422t1.2422 0.79688q0.73438 0.28125 1.6328 0.28125 0.63281 0 1.25-0.10156 0.625-0.10156 1.1953-0.375v0.71875q-0.58594 0.25-1.2266 0.34375-0.64063 0.085938-1.2734 0.085938-1.0391 0-1.8984-0.32031-0.85938-0.32812-1.4844-0.92188-0.61719-0.60156-0.96094-1.4531-0.34375-0.85156-0.34375-1.8984 0-1.0547 0.35156-1.9531 0.35156-0.89844 0.98438-1.5547 0.63281-0.65625 1.5156-1.0234 0.88281-0.375 1.9531-0.375zm-0.60937 6.6797q0.47656 0 0.78125-0.26562 0.30469-0.27344 0.47656-0.67188 0.17188-0.39844 0.23438-0.85156 0.07031-0.45312 0.07031-0.82031 0-0.26562-0.05469-0.49219-0.05469-0.22656-0.17969-0.39062-0.11719-0.16406-0.32031-0.25781t-0.49219-0.09375q-0.45312 0-0.75781 0.23438-0.30469 0.23438-0.49219 0.58594-0.1875 0.35156-0.27344 0.77344-0.07813 0.41406-0.07813 0.78125 0 0.25781 0.05469 0.52344 0.05469 0.25781 0.17969 0.46875 0.125 0.21094 0.33594 0.34375 0.21094 0.13281 0.51562 0.13281zm-7.4141-8.1797h3v1h-2v10h2v1h-3zm16 0v12h-3v-1h2v-10h-2v-1z" stroke-width=".4"/>
 </g>
</svg>
