<svg width="796" height="283" xmlns="http://www.w3.org/2000/svg" overflow="hidden"><defs><clipPath id="a"><path d="M238 229h796v283H238z"/></clipPath><clipPath id="b"><path d="M391 286h55v54h-55z"/></clipPath><clipPath id="c"><path d="M391 286h55v54h-55z"/></clipPath><clipPath id="d"><path d="M391 286h55v54h-55z"/></clipPath><clipPath id="e"><path d="M661 320h41v41h-41z"/></clipPath><clipPath id="f"><path d="M661 320h41v41h-41z"/></clipPath><clipPath id="g"><path d="M661 320h41v41h-41z"/></clipPath><clipPath id="h"><path d="M660 252h41v41h-41z"/></clipPath><clipPath id="i"><path d="M660 252h41v41h-41z"/></clipPath><clipPath id="j"><path d="M660 252h41v41h-41z"/></clipPath><clipPath id="k"><path d="M937 255h42v41h-42z"/></clipPath><clipPath id="l"><path d="M937 255h42v41h-42z"/></clipPath><clipPath id="m"><path d="M937 255h42v41h-42z"/></clipPath><clipPath id="n"><path d="M938 323h41v41h-41z"/></clipPath><clipPath id="o"><path d="M938 323h41v41h-41z"/></clipPath><clipPath id="p"><path d="M938 323h41v41h-41z"/></clipPath><clipPath id="q"><path d="M743 453h41v41h-41z"/></clipPath><clipPath id="r"><path d="M743 453h41v41h-41z"/></clipPath><clipPath id="s"><path d="M743 453h41v41h-41z"/></clipPath><clipPath id="t"><path d="M260 457h41v40h-41z"/></clipPath><clipPath id="u"><path d="M260 457h41v40h-41z"/></clipPath><clipPath id="v"><path d="M260 457h41v40h-41z"/></clipPath><clipPath id="w"><path d="M520 457h40v40h-40z"/></clipPath><clipPath id="x"><path d="M520 457h40v40h-40z"/></clipPath><clipPath id="y"><path d="M520 457h40v40h-40z"/></clipPath></defs><g clip-path="url(#a)" transform="translate(-238 -229)"><path fill="#FFF" d="M238 229h790v282H238z"/><path d="M805.37 274.295V296h-28.543v-41.473L791 246l14.37 8.527v19.768m-28.543-14.342H766V296h10.827m-6.693-30.233h6.693m-6.693 5.039h6.693m-6.693 5.233h6.693m-6.693 5.232h6.693m-6.693 5.233h6.693M805.37 296H816v-36.047h-10.63m6.693 5.814h-6.693m6.693 5.039h-6.693m6.693 5.233h-6.693m6.693 5.232h-6.693m6.693 5.233h-6.693m-20.472-26.744v-.969h-1.772v1.938h1.772v-.969m7.086 0v-.969h-1.968v1.938h1.968v-.969m7.087 0v-.969h-1.969v1.938h1.969v-.969m-14.173 7.364v-.969h-1.772v1.938h1.772v-.969m7.086 0v-.969h-1.968v1.938h1.968v-.969m7.087 0v-.969h-1.969v1.938h1.969v-.969m-14.173 7.364v-.969h-1.772v1.938h1.772v-.969m7.086 0v-.969h-1.968v1.938h1.968v-.969m7.087 0v-.969h-1.969v1.938h1.969v-.969m-14.173 7.365v-.969h-1.772v1.938h1.772v-.969m7.086.194v-1.163h-1.968v1.938h1.968v-.775m7.087-.388v-.775h-1.969v1.938h1.969v-1.163M798.087 296v-7.946H784.11V296" stroke="#000" stroke-width="1.667" stroke-miterlimit="8" fill="none"/><g clip-path="url(#b)"><g clip-path="url(#c)"><g clip-path="url(#d)"><path d="M432.25 286v46.406L391 326.365l14.412 4.759L432.25 340l13.75-5.62v-42.76zm-34.375 28.688-4.297-.97v-8.599l3.06-3.729 11.55-4.37v-3.156l8.928 6.885-19.241 3.813zm18.906 2.53v-16.596l8.594-1.232v18.723l-7.734 6.126-12.032-3.822v3.839l-8.052-9.568z" fill="#0078D7"/></g></g></g><text font-family="Calibri,Calibri_MSFontService,sans-serif" font-weight="400" font-size="24" transform="translate(276.406 407)">Power Platform <tspan x="22.613" y="29">1:1 DevOps</tspan></text><path d="M560.268 308.008V341h-42.244v-63.039L539 265l21.268 12.961v30.047m-42.244-21.799H502V341h16.024m-9.906-45.953h9.906m-9.906 7.658h9.906m-9.906 7.954h9.906m-9.906 7.953h9.906m-9.906 7.954h9.906M560.268 341H576v-54.791h-15.732m9.905 8.838h-9.905m9.905 7.658h-9.905m9.905 7.954h-9.905m9.905 7.953h-9.905m9.905 7.954h-9.905m-30.299-40.651v-1.473h-2.623v2.946h2.623v-1.473m10.488 0v-1.473h-2.914v2.946h2.914v-1.473m10.488 0v-1.473h-2.914v2.946h2.914v-1.473m-20.976 11.194v-1.473h-2.623v2.945h2.623v-1.472m10.488 0v-1.473h-2.914v2.945h2.914v-1.472m10.488 0v-1.473h-2.914v2.945h2.914v-1.472m-20.976 11.193v-1.473h-2.623v2.946h2.623v-1.473m10.488 0v-1.473h-2.914v2.946h2.914v-1.473m10.488 0v-1.473h-2.914v2.946h2.914v-1.473m-20.976 11.194v-1.473h-2.623v2.946h2.623v-1.473m10.488.295v-1.768h-2.914v2.946h2.914v-1.178m10.488-.589v-1.179h-2.914v2.946h2.914v-1.767M549.488 341v-12.078h-20.685V341" stroke="#000" stroke-width="1.667" stroke-miterlimit="8" fill="none"/><g clip-path="url(#e)"><g clip-path="url(#f)"><g clip-path="url(#g)"><path d="M691.75 320v35.234L661 350.647l10.743 3.614L691.75 361l10.25-4.267v-32.466zm-25.625 21.781-3.203-.736v-6.528l2.281-2.832 8.609-3.318v-2.396l6.657 5.227-14.344 2.896zm14.094 1.922v-12.601l6.406-.935v14.215l-5.766 4.651-8.968-2.902v2.915l-6.003-7.265z" fill="#0078D7"/></g></g></g><text font-family="Calibri,Calibri_MSFontService,sans-serif" font-weight="400" font-size="24" transform="translate(526.784 407)">Power Platform <tspan x="15.693" y="29">1: M DevOps</tspan></text><path d="M621 320h23v39h-8.615v-11.998h-5.752V359H621v-39m5.752 4.5v6.004m5.753-6.004v6.004m5.752-6.004v6.004m-11.505 2.997v6.004m5.753-6.004v6.004m5.752-6.004v6.004" stroke="#000" stroke-width="1.667" stroke-linecap="square" stroke-miterlimit="8" fill="none"/><g clip-path="url(#h)"><g clip-path="url(#i)"><g clip-path="url(#j)"><path d="M690.75 252v35.234L660 282.647l10.743 3.614L690.75 293l10.25-4.267v-32.466zm-25.625 21.781-3.203-.736v-6.528l2.281-2.832 8.609-3.318v-2.396l6.657 5.227-14.344 2.896zm14.094 1.922v-12.601l6.406-.935v14.215l-5.766 4.651-8.968-2.902v2.915l-6.003-7.265z" fill="#0078D7"/></g></g></g><path d="M620 252h23v38h-8.615v-11.69h-5.752V290H620v-38m5.752 4.385v5.85m5.753-5.85v5.85m5.752-5.85v5.85m-11.505 2.92v5.85m5.753-5.85v5.85m5.752-5.85v5.85" stroke="#000" stroke-width="1.667" stroke-linecap="square" stroke-miterlimit="8" fill="none"/><path d="m585.7 290.762 14.597-10.986-.4-.533L585.3 290.23zm15.737-7.255 3.986-8.007-8.797 1.615zM586.701 326.234l14.596 10.986-.401.533-14.596-10.987zm15.736 7.255 3.986 8.007-8.797-1.615zM352.5 313.833h23.1v-.666h-23.1zm21.767 3.667 8-4-8-4z" fill="#4472C4"/><path d="M318.268 310.442V343h-42.244v-62.209L297 268l21.268 12.791v29.651m-42.244-21.512H260V343h16.024m-9.906-45.349h9.906m-9.906 7.558h9.906m-9.906 7.849h9.906m-9.906 7.849h9.906m-9.906 7.849h9.906M318.268 343H334v-54.07h-15.732m9.905 8.721h-9.905m9.905 7.558h-9.905m9.905 7.849h-9.905m9.905 7.849h-9.905m9.905 7.849h-9.905m-30.299-40.116v-1.454h-2.623v2.907h2.623v-1.453m10.488 0v-1.454h-2.914v2.907h2.914v-1.453m10.488 0v-1.454h-2.914v2.907h2.914v-1.453m-20.976 11.046v-1.453h-2.623v2.907h2.623v-1.454m10.488 0v-1.453h-2.914v2.907h2.914v-1.454m10.488 0v-1.453h-2.914v2.907h2.914v-1.454m-20.976 11.047v-1.454h-2.623v2.907h2.623v-1.453m10.488 0v-1.454h-2.914v2.907h2.914v-1.453m10.488 0v-1.454h-2.914v2.907h2.914v-1.453m-20.976 11.046v-1.453h-2.623v2.907h2.623v-1.454m10.488.291v-1.744h-2.914v2.907h2.914v-1.163m10.488-.582v-1.162h-2.914v2.907h2.914v-1.745M307.488 343v-11.919h-20.685V343" stroke="#000" stroke-width="1.667" stroke-miterlimit="8" fill="none"/><g clip-path="url(#k)"><g clip-path="url(#l)"><g clip-path="url(#m)"><path d="M968.5 255v35.234l-31.5-4.587 11.005 3.614L968.5 296l10.5-4.267v-32.466zm-26.25 21.781-3.281-.737v-6.527l2.336-2.832 8.82-3.318v-2.396l6.818 5.227-14.693 2.896zm14.438 1.922v-12.601l6.562-.935v14.215l-5.906 4.651-9.188-2.902v2.915l-6.149-7.265z" fill="#0078D7"/></g></g></g><path d="M897 255h24v39h-8.989v-11.998h-6.003V294H897v-39m6.002 4.5v6.004m6.003-6.004v6.004m6.002-6.004v6.004m-12.005 2.997v6.004m6.003-6.004v6.004m6.002-6.004v6.004" stroke="#000" stroke-width="1.667" stroke-linecap="square" stroke-miterlimit="8" fill="none"/><path d="M836.5 276.833h23.1v-.666h-23.1zm21.767 3.667 8-4-8-4z" fill="#4472C4"/><path d="M806.37 341.86V364h-28.543v-42.302L792 313l14.37 8.698v20.162m-28.543-14.627H767V364h10.827m-6.693-30.837h6.693m-6.693 5.139h6.693m-6.693 5.338h6.693m-6.693 5.337h6.693m-6.693 5.337h6.693M806.37 364H817v-36.767h-10.63m6.693 5.93h-6.693m6.693 5.139h-6.693m6.693 5.338h-6.693m6.693 5.337h-6.693m6.693 5.337h-6.693m-20.472-27.279v-.988h-1.772v1.976h1.772v-.988m7.086 0v-.988h-1.968v1.976h1.968v-.988m7.087 0v-.988h-1.969v1.976h1.969v-.988m-14.173 7.512v-.989h-1.772v1.977h1.772v-.988m7.086 0v-.989h-1.968v1.977h1.968v-.988m7.087 0v-.989h-1.969v1.977h1.969v-.988m-14.173 7.511v-.988h-1.772v1.977h1.772v-.989m7.086 0v-.988h-1.968v1.977h1.968v-.989m7.087 0v-.988h-1.969v1.977h1.969v-.989m-14.173 7.512v-.989h-1.772v1.977h1.772v-.988m7.086.197v-1.186h-1.968v1.977h1.968v-.791m7.087-.395v-.791h-1.969v1.977h1.969v-1.186M799.087 364v-8.105H785.11V364" stroke="#000" stroke-width="1.667" stroke-miterlimit="8" fill="none"/><g clip-path="url(#n)"><g clip-path="url(#o)"><g clip-path="url(#p)"><path d="M968.75 323v35.234L938 353.647l10.743 3.614L968.75 364l10.25-4.267v-32.466zm-25.625 21.781-3.203-.736v-6.528l2.281-2.832 8.609-3.318v-2.396l6.657 5.227-14.344 2.896zm14.094 1.922v-12.601l6.406-.935v14.215l-5.766 4.651-8.968-2.902v2.915l-6.003-7.265z" fill="#0078D7"/></g></g></g><path d="M898 323h24v38h-8.989v-11.69h-6.003V361H898v-38m6.002 4.385v5.85m6.003-5.85v5.85m6.002-5.85v5.85m-12.005 2.92v5.85m6.003-5.85v5.85m6.002-5.85v5.85" stroke="#000" stroke-width="1.667" stroke-linecap="square" stroke-miterlimit="8" fill="none"/><path d="M837.5 343.833h23.1v-.666h-23.1zm21.767 3.667 8-4-8-4z" fill="#4472C4"/><text font-family="Calibri,Calibri_MSFontService,sans-serif" font-weight="400" font-size="24" transform="translate(754.456 411)">Multiple Power <tspan x="155.047" y="0">Platform </tspan><tspan x="-6.467" y="29">Environments and </tspan><tspan x="175.86" y="29">DevOps</tspan></text><g clip-path="url(#q)"><g clip-path="url(#r)"><g clip-path="url(#s)" stroke="red" stroke-width="2.05" fill="red"><path d="M763.5 457.271c-8.966-.003-16.236 7.263-16.239 16.229-.002 8.966 7.264 16.236 16.23 16.239 8.965.002 16.236-7.264 16.238-16.23v-.005c.005-8.96-7.255-16.228-16.216-16.233h-.013zm0 31.613c-8.494.003-15.382-6.881-15.384-15.375-.003-8.494 6.881-15.382 15.375-15.384 8.494-.003 15.381 6.881 15.384 15.375v.006c-.008 8.488-6.886 15.368-15.375 15.379z"/><path d="m769.497 466.905-5.998 5.997-5.997-5.997-.604.603 5.997 5.998-5.997 5.998.604.603 5.997-5.997 5.998 5.997.604-.603-5.998-5.998 5.998-5.998-.604-.603z"/></g></g></g><text font-family="Segoe UI,Segoe UI_MSFontService,sans-serif" font-weight="700" font-size="15" transform="translate(802.025 479)">Not<tspan font-weight="400" x="30.333" y="0">Recommended for AA4AM</tspan></text><g clip-path="url(#t)"><g clip-path="url(#u)"><g clip-path="url(#v)"><path d="m296.772 463.583-21.867 20.167-10.506-10.5-3.63 3.375 13.965 14 3.673-3.333 21.824-20.209z" fill="#00B050"/></g></g></g><text font-family="Segoe UI,Segoe UI_MSFontService,sans-serif" font-weight="400" font-size="15" transform="translate(321.538 482)">AA4AM Supported</text><g clip-path="url(#w)"><g clip-path="url(#x)"><g clip-path="url(#y)"><path d="m555.875 463.583-21.333 20.167-10.25-10.5-3.542 3.375 13.625 14 3.583-3.333 21.292-20.209z" fill="#00B050"/></g></g></g><text font-family="Segoe UI,Segoe UI_MSFontService,sans-serif" font-weight="400" font-size="15" transform="translate(581.092 482)">AA4AM Supported</text></g></svg>