<svg width="997" height="522" xmlns="http://www.w3.org/2000/svg" overflow="hidden"><defs><clipPath id="a"><path d="M131 83h997v522H131z"/></clipPath><clipPath id="b"><path d="M153 549h41v41h-41z"/></clipPath><clipPath id="c"><path d="M153 549h41v41h-41z"/></clipPath><clipPath id="d"><path d="M153 549h41v41h-41z"/></clipPath><clipPath id="e"><path d="M819 549h40v41h-40z"/></clipPath><clipPath id="f"><path d="M819 549h40v41h-40z"/></clipPath><clipPath id="g"><path d="M819 549h40v41h-40z"/></clipPath><clipPath id="h"><path d="M481 552h41v40h-41z"/></clipPath><clipPath id="i"><path d="M481 552h41v40h-41z"/></clipPath><clipPath id="j"><path d="M481 552h41v40h-41z"/></clipPath></defs><g clip-path="url(#a)" transform="translate(-131 -83)"><path fill="#FFF" d="M132 84h995v520H132z"/><text font-family="Segoe UI,Segoe UI_MSFontService,sans-serif" font-weight="400" font-size="24" transform="translate(156.095 251)">Demo Deployment<tspan fill="#0563C1" font-size="15" x="-14.434" y="38">https://crm765191.onmicrosoft.com</tspan></text><path d="M141.662 289.603h232v1h-232z" fill="#0563C1" fill-rule="evenodd"/><text fill="#0563C1" font-family="Segoe UI,Segoe UI_MSFontService,sans-serif" font-weight="400" font-size="15" transform="translate(141.662 307)">https://dev.azure.com/crm765191</text><path d="M141.662 307.603h218v1h-218z" fill="#0563C1" fill-rule="evenodd"/><text font-family="Segoe UI,Segoe UI_MSFontService,sans-serif" font-weight="400" font-size="24" transform="translate(449.216 251)">Enterprise Deployment</text><path d="M213.928 170.736h29.59V201h-29.59v-30.264zm9.662 9.171h-1.51v1.528h1.51v-1.528zm0 11.005h-1.51v1.528h1.51v-1.528zm11.172-11.005h-1.51v1.528h1.51v-1.528zm0 11.005h-1.51v1.528h1.51v-1.528zm48.31-11.005h-1.208v1.528h1.208v-1.528zm0 11.005h-1.208v1.528h1.208v-1.528zm11.474-11.005h-1.51v1.528h1.51v-1.528zm0 11.005h-1.51v1.528h1.51v-1.528zM273.41 201H303v-30.264h-29.59V201zm-14.795-59-15.097 13.756V201h29.892v-45.244L258.615 142zm8.152 17.731h-16.908v7.948h16.908v-7.948zm0 41.269v-14.979h-8.454V201m0-14.979h-8.454V201m8.454-25.679c-.906 0-1.812.917-1.812 1.834 0 1.223.906 2.14 1.812 2.14 1.208 0 1.812-.917 1.812-2.14 0-.917-.604-1.834-1.812-1.834zm-58.576-10.394 9.36-3.974-9.36-5.197V201M194 201h11.474M591.268 168.442V201h-42.244v-62.209L570 126l21.268 12.791v29.651m-42.244-21.512H533V201h16.024m-9.906-45.349h9.906m-9.906 7.558h9.906m-9.906 7.849h9.906m-9.906 7.849h9.906m-9.906 7.849h9.906M591.268 201H607v-54.07h-15.732m9.905 8.721h-9.905m9.905 7.558h-9.905m9.905 7.849h-9.905m9.905 7.849h-9.905m9.905 7.849h-9.905m-30.299-40.116v-1.454h-2.623v2.907h2.623v-1.453m10.488 0v-1.454h-2.914v2.907h2.914v-1.453m10.488 0v-1.454h-2.914v2.907h2.914v-1.453m-20.976 11.046v-1.453h-2.623v2.907h2.623v-1.454m10.488 0v-1.453h-2.914v2.907h2.914v-1.454m10.488 0v-1.453h-2.914v2.907h2.914v-1.454m-20.976 11.047v-1.454h-2.623v2.907h2.623v-1.453m10.488 0v-1.454h-2.914v2.907h2.914v-1.453m10.488 0v-1.454h-2.914v2.907h2.914v-1.453m-20.976 11.046v-1.453h-2.623v2.907h2.623v-1.454m10.488.291v-1.744h-2.914v2.907h2.914v-1.163m10.488-.582v-1.162h-2.914v2.907h2.914v-1.745M580.488 201v-11.919h-20.685V201" stroke="#000" stroke-width="1.667" stroke-miterlimit="8" fill="none"/><text fill="#0563C1" font-family="Segoe UI,Segoe UI_MSFontService,sans-serif" font-weight="400" font-size="15" transform="translate(433.646 289)">https://contoso.onmicrosoft.com</text><path d="M433.646 289.603h213v1h-213z" fill="#0563C1" fill-rule="evenodd"/><text fill="#0563C1" font-family="Segoe UI,Segoe UI_MSFontService,sans-serif" font-weight="400" font-size="15" transform="translate(433.646 307)">https://dev.azure.com/contoso</text><path d="M433.646 307.603h199v1h-199z" fill="#0563C1" fill-rule="evenodd"/><text font-family="Segoe UI,Segoe UI_MSFontService,sans-serif" font-weight="400" font-size="24" transform="translate(806.119 251)">Multi Tenant Deployment<tspan fill="#0563C1" font-size="15" x="-45.066" y="38">https://contoso</tspan><tspan fill="#0563C1" font-size="15" x="54.934" y="38">-</tspan><tspan fill="#0563C1" font-size="15" x="60.767" y="38">dev.onmicrosoft.com</tspan></text><path d="M761.053 289.603h241.997v1H761.053z" fill="#0563C1" fill-rule="evenodd"/><text fill="#0563C1" font-family="Segoe UI,Segoe UI_MSFontService,sans-serif" font-weight="400" font-size="15" transform="translate(761.053 307)">https://contoso.onmicrosoft.com</text><path d="M761.053 307.603h213v1h-213z" fill="#0563C1" fill-rule="evenodd"/><text fill="#0563C1" font-family="Segoe UI,Segoe UI_MSFontService,sans-serif" font-weight="400" font-size="15" transform="translate(761.053 324)">https://dev.azure.com/contoso</text><path d="M761.053 324.603h199v1h-199z" fill="#0563C1" fill-rule="evenodd"/><text font-family="Arial,Arial_MSFontService,sans-serif" font-weight="400" font-size="15" transform="translate(424.132 364)">•<tspan font-family="Segoe UI,Segoe UI_MSFontService,sans-serif" x="18" y="0">Integrated into </tspan><tspan font-family="Segoe UI,Segoe UI_MSFontService,sans-serif" font-weight="700" x="119" y="0">Single</tspan><tspan font-family="Segoe UI,Segoe UI_MSFontService,sans-serif" font-weight="700" x="165.333" y="0">Enterprise AAD </tspan><tspan font-family="Segoe UI,Segoe UI_MSFontService,sans-serif" x="18" y="18">tenant</tspan><tspan x="0" y="35">•</tspan><tspan font-family="Segoe UI,Segoe UI_MSFontService,sans-serif" x="18" y="35">Multiple environments Development, Test </tspan><tspan font-family="Segoe UI,Segoe UI_MSFontService,sans-serif" x="18" y="53">and Production</tspan><tspan x="0" y="71">•</tspan><tspan font-family="Segoe UI,Segoe UI_MSFontService,sans-serif" x="18" y="71">End to end ALM Process for </tspan><tspan font-family="Segoe UI,Segoe UI_MSFontService,sans-serif" x="201.667" y="71">enterprise wide</tspan><tspan font-family="Segoe UI,Segoe UI_MSFontService,sans-serif" x="18" y="88">applications with thousands of users</tspan><tspan x="0" y="106">•</tspan><tspan font-family="Segoe UI,Segoe UI_MSFontService,sans-serif" x="18" y="106">Fusion Development Teams of Makers, Pro </tspan><tspan font-family="Segoe UI,Segoe UI_MSFontService,sans-serif" x="18" y="123">Developers, Administrators </tspan><tspan x="332.241" y="0">•</tspan><tspan font-family="Segoe UI,Segoe UI_MSFontService,sans-serif" font-weight="700" x="350.241" y="0">Multiple</tspan><tspan font-family="Segoe UI,Segoe UI_MSFontService,sans-serif" font-weight="700" x="412.408" y="0">AAD tenants </tspan><tspan font-family="Segoe UI,Segoe UI_MSFontService,sans-serif" x="503.241" y="0">–</tspan><tspan font-family="Segoe UI,Segoe UI_MSFontService,sans-serif" x="514.575" y="0">Internal in organization or </tspan><tspan font-family="Segoe UI,Segoe UI_MSFontService,sans-serif" x="350.241" y="18">with partners</tspan><tspan x="332.241" y="35">•</tspan><tspan font-family="Segoe UI,Segoe UI_MSFontService,sans-serif" x="350.241" y="35">Multiple environments Development, Test and </tspan><tspan font-family="Segoe UI,Segoe UI_MSFontService,sans-serif" x="350.241" y="53">Production</tspan><tspan x="332.241" y="71">•</tspan><tspan font-family="Segoe UI,Segoe UI_MSFontService,sans-serif" x="350.241" y="71">End to end ALM Process for </tspan><tspan font-family="Segoe UI,Segoe UI_MSFontService,sans-serif" x="533.908" y="71">enterprise wide</tspan><tspan font-family="Segoe UI,Segoe UI_MSFontService,sans-serif" x="350.241" y="88">applications with thousands of users or applications </tspan><tspan font-family="Segoe UI,Segoe UI_MSFontService,sans-serif" x="350.241" y="106">shared across organizations</tspan><tspan x="332.241" y="123">•</tspan><tspan font-family="Segoe UI,Segoe UI_MSFontService,sans-serif" x="350.241" y="123">Fusion Development Teams of Makers, Pro </tspan><tspan font-family="Segoe UI,Segoe UI_MSFontService,sans-serif" x="350.241" y="141">Developers, Administrators from within and outside </tspan><tspan font-family="Segoe UI,Segoe UI_MSFontService,sans-serif" x="350.241" y="159">the organization</tspan><tspan x="-282.47" y="3">•</tspan><tspan font-family="Segoe UI,Segoe UI_MSFontService,sans-serif" x="-264.47" y="3">Separated from Enterprise </tspan><tspan font-family="Segoe UI,Segoe UI_MSFontService,sans-serif" x="-264.47" y="21">Environment in </tspan><tspan font-family="Segoe UI,Segoe UI_MSFontService,sans-serif" font-weight="700" x="-162.47" y="21">Demo AAD Tenant</tspan><tspan x="-282.47" y="38">•</tspan><tspan font-family="Segoe UI,Segoe UI_MSFontService,sans-serif" x="-264.47" y="38">Use Trial environment / </tspan><tspan font-family="Segoe UI,Segoe UI_MSFontService,sans-serif" x="-109.304" y="38">licenses</tspan><tspan x="-282.47" y="56">•</tspan><tspan font-family="Segoe UI,Segoe UI_MSFontService,sans-serif" x="-264.47" y="56">Demonstrate end to end ALM </tspan><tspan font-family="Segoe UI,Segoe UI_MSFontService,sans-serif" x="-264.47" y="74">Process</tspan><tspan x="-282.47" y="91">•</tspan><tspan font-family="Segoe UI,Segoe UI_MSFontService,sans-serif" x="-264.47" y="91">Learn and Explore</tspan><tspan x="-282.47" y="109">•</tspan><tspan font-family="Segoe UI,Segoe UI_MSFontService,sans-serif" x="-264.47" y="109">Typical Users: 1</tspan><tspan font-family="Segoe UI,Segoe UI_MSFontService,sans-serif" x="-165.47" y="109">-</tspan><tspan font-family="Segoe UI,Segoe UI_MSFontService,sans-serif" x="-159.637" y="109">5 Users</tspan></text><path d="M942.613 138.79V201h-12.699v-21.483h-13.59V201h-13.367v-62.21h39.656m-19.605 0v-13.203H876V201m88 0v-68.476L935.706 105v33.79m-45.893 0h-1.337v.895h1.337v-.895m0 13.427h-1.337v1.342h1.337v-1.342m0 13.426h-1.337v1.343h1.337v-1.343m0 13.651h-1.337v1.119h1.337v-1.119m0 13.426h-1.337v1.119h1.337v-1.119m26.734-40.503h-1.114v1.342h1.114v-1.342m0 13.874h-1.114v.895h1.114v-.895m13.59-13.874H928.8v1.342h1.337v-1.342m0 13.874H928.8v.895h1.337v-.895" stroke="#000" stroke-width="1.667" stroke-miterlimit="8" fill="none"/><g clip-path="url(#b)"><g clip-path="url(#c)"><g clip-path="url(#d)"><path d="m189.772 555.748-21.867 20.671-10.506-10.763-3.63 3.46 13.965 14.35 3.673-3.417 21.824-20.714z" fill="#00B050"/></g></g></g><g clip-path="url(#e)"><g clip-path="url(#f)"><g clip-path="url(#g)" stroke="red" stroke-width="2" fill="red"><path d="M20 4.167C11.253 4.164 4.16 11.253 4.157 20c-.002 8.747 7.087 15.84 15.834 15.843 8.747.002 15.84-7.087 15.842-15.834v-.005c.005-8.742-7.078-15.833-15.82-15.837H20zm0 30.842c-8.287.002-15.007-6.713-15.01-15-.002-8.287 6.714-15.007 15-15.01 8.288-.002 15.008 6.714 15.01 15v.006C34.992 28.287 28.282 35 20 35.01z" transform="matrix(1 0 0 1.025 819 549)"/><path d="M25.85 13.565 20 19.417l-5.852-5.852-.59.59 5.852 5.85-5.851 5.852.589.59 5.851-5.852 5.851 5.851.59-.589-5.852-5.851 5.852-5.851-.59-.59z" transform="matrix(1 0 0 1.025 819 549)"/></g></g></g><text font-family="Segoe UI,Segoe UI_MSFontService,sans-serif" font-weight="400" font-size="15" transform="translate(215.014 575)">AA4AM Supported</text><g clip-path="url(#h)"><g clip-path="url(#i)"><g clip-path="url(#j)"><path d="m517.772 558.583-21.867 20.167-10.506-10.5-3.63 3.375 13.965 14 3.673-3.333 21.824-20.209z" fill="#00B050"/></g></g></g><text font-family="Segoe UI,Segoe UI_MSFontService,sans-serif" font-weight="400" font-size="15" transform="translate(542.732 575)">AA4AM Supported<tspan font-weight="700" x="334.523" y="0">Not</tspan><tspan x="364.856" y="0">supported by AA4AM</tspan></text></g></svg>