<svg xmlns="http://www.w3.org/2000/svg" viewBox="0 0 2048 2048">
  <path d="M2040 1026q0 26-8 50t-26 44l-709 862q-22 26-51 40t-64 15q-33 0-58-12t-47-32-39-44-37-47q-19 24-36 47t-36 42-44 30-59 12q-34 0-65-15t-52-41L28 1118q-32-40-32-93 0-25 8-49t24-44L709 74q21-27 51-42t66-15q33 0 58 11t44 30 37 42 36 48q19-23 37-47t39-43 46-32 59-13q34 0 63 14t52 41l408 496 301 366q34 42 34 96zM861 527q0 6 5 13l316 384 294-358q8-10 17-18t21-14l-316-384q-6-8-16-8t-16 8L866 513q-5 7-5 14zm57 1274l-151-183q-34-40-34-95 0-26 8-50t26-45l321-389q4-5 4-14 0-8-4-13L767 622q-34-42-34-95t34-95l151-183-75-96q-6-7-17-7t-17 7l-680 859q-5 7-5 13 0 5 1 7t4 6l680 859q6 8 17 8t17-8l75-96zm596-284q-22-14-38-33l-294-358-316 384q-5 7-5 14 0 6 5 13l300 364q6 8 16 8t16-8l316-384zm398-494q0-2-1-5t-4-6l-300-365q-6-7-15-7-11 0-17 8l-299 364q-5 7-5 13 0 7 5 14l299 363q6 8 16 8 11 0 17-8l299-363q5-6 5-16z" />
</svg>