<?xml version="1.0" encoding="iso-8859-1"?>
<!-- Generator: Adobe Illustrator 19.0.0, SVG Export Plug-In . SVG Version: 6.00 Build 0)  -->
<svg version="1.1" id="Layer_1" xmlns="http://www.w3.org/2000/svg" xmlns:xlink="http://www.w3.org/1999/xlink" x="0px" y="0px"
	 viewBox="0 0 300.109 300.109" style="enable-background:new 0 0 300.109 300.109;" xml:space="preserve">
<g>
	<g>
		<g>
			<path d="M87.073,97.222H66.475c-4.142,0-7.5,3.358-7.5,7.5c0,4.142,3.358,7.5,7.5,7.5h20.598c4.142,0,7.5-3.358,7.5-7.5
				C94.573,100.579,91.215,97.222,87.073,97.222z"/>
			<path d="M119.27,112.222h67.53c4.143,0,7.5-3.358,7.5-7.5c0-4.142-3.357-7.5-7.5-7.5h-67.53c-4.142,0-7.5,3.358-7.5,7.5
				C111.77,108.863,115.128,112.222,119.27,112.222z"/>
			<path d="M87.073,142.555H66.475c-4.142,0-7.5,3.358-7.5,7.5c0,4.142,3.358,7.5,7.5,7.5h20.598c4.142,0,7.5-3.358,7.5-7.5
				C94.573,145.912,91.215,142.555,87.073,142.555z"/>
			<path d="M119.27,157.555h67.53c4.143,0,7.5-3.358,7.5-7.5c0-4.142-3.357-7.5-7.5-7.5h-67.53c-4.142,0-7.5,3.358-7.5,7.5
				C111.77,154.196,115.128,157.555,119.27,157.555z"/>
			<path d="M87.073,187.888H66.475c-4.142,0-7.5,3.358-7.5,7.5c0,4.142,3.358,7.5,7.5,7.5h20.598c4.142,0,7.5-3.358,7.5-7.5
				C94.573,191.246,91.215,187.888,87.073,187.888z"/>
			<path d="M194.3,195.388c0-4.142-3.357-7.5-7.5-7.5h-67.53c-4.142,0-7.5,3.358-7.5,7.5c0,4.142,3.358,7.5,7.5,7.5h67.53
				C190.943,202.888,194.3,199.53,194.3,195.388z"/>
			<path d="M253.275,174.418V25.055c0-4.142-3.357-7.5-7.5-7.5H7.5c-4.142,0-7.5,3.358-7.5,7.5v250c0,4.142,3.358,7.5,7.5,7.5
				h238.275c29.96,0,54.334-24.374,54.334-54.334C300.109,200.807,279.697,178.084,253.275,174.418z M15,267.554v-235h223.275
				v141.849c-44.209,6.138-63.373,61.329-29.946,93.151H15z M245.775,267.554c-21.688,0-39.333-17.645-39.333-39.334
				c0-21.689,17.645-39.333,39.333-39.333c21.688,0,39.334,17.645,39.334,39.333C285.109,249.909,267.463,267.554,245.775,267.554z"
				/>
			<path d="M269.02,209.137c-3.542-2.143-8.154-1.011-10.3,2.534l-14.715,24.32l-11.406-10.062
				c-3.107-2.74-7.845-2.443-10.586,0.663c-2.74,3.106-2.443,7.846,0.662,10.586l18.138,16c3.491,3.078,8.949,2.275,11.379-1.742
				l19.362-32C273.699,215.893,272.564,211.282,269.02,209.137z"/>
		</g>
	</g>
</g>
<g>
</g>
<g>
</g>
<g>
</g>
<g>
</g>
<g>
</g>
<g>
</g>
<g>
</g>
<g>
</g>
<g>
</g>
<g>
</g>
<g>
</g>
<g>
</g>
<g>
</g>
<g>
</g>
<g>
</g>
</svg>
