<svg width="96" height="96" viewBox="0 0 96 96" fill="none" xmlns="http://www.w3.org/2000/svg">
<defs>
<filter id="filter0_f">
<feFlood flood-opacity="0" result="BackgroundImageFix"/>
<feBlend mode="normal" in="SourceGraphic" in2="BackgroundImageFix" result="shape"/>
<feGaussianBlur stdDeviation="0.2" result="effect1_foregroundBlur"/>
</filter>
<filter id="filter1_f">
<feFlood flood-opacity="0" result="BackgroundImageFix"/>
<feBlend mode="normal" in="SourceGraphic" in2="BackgroundImageFix" result="shape"/>
<feGaussianBlur stdDeviation="2" result="effect1_foregroundBlur"/>
</filter>
<linearGradient id="paint0_linear" x1="45.5" y1="51.5" x2="38.5" y2="29" gradientUnits="userSpaceOnUse">
<stop stop-color="#0D36A5"/>
<stop offset="1" stop-color="#1152D4"/>
</linearGradient>
<linearGradient id="paint1_linear" x1="47" y1="29" x2="47" y2="67" gradientUnits="userSpaceOnUse">
<stop stop-color="#84CAFF"/>
<stop offset="1" stop-color="#61B1FB"/>
</linearGradient>
<linearGradient id="paint2_linear" x1="42.75" y1="29" x2="42.75" y2="67" gradientUnits="userSpaceOnUse">
<stop stop-color="#3B90F5"/>
<stop offset="1" stop-color="#2A78EE"/>
</linearGradient>
<clipPath id="clip0">
<rect width="48" height="48" fill="white" transform="translate(24 24)"/>
</clipPath>
<clipPath id="clip1">
<rect width="48" height="48" fill="white" transform="translate(24 24)"/>
</clipPath>
</defs>
<g clip-path="url(#clip0)">
<g clip-path="url(#clip1)">
<mask id="mask0" mask-type="alpha" maskUnits="userSpaceOnUse" x="23" y="29" width="49" height="38">
<path d="M54.6058 29C55.1748 29 55.7169 29.2424 56.0963 29.6664L71.3068 46.6664C71.9861 47.4257 71.9861 48.5743 71.3068 49.3336L56.0963 66.3336C55.7169 66.7576 55.1748 67 54.6058 67H25.9732C24.2444 67 23.3299 64.9548 24.4827 63.6664L38.5 48L24.4827 32.3336C23.3299 31.0452 24.2444 29 25.9732 29H54.6058Z" fill="white"/>
</mask>
<g mask="url(#mask0)">
<path d="M55.5 29L38.5 48L21.5 29H55.5Z" fill="url(#paint0_linear)"/>
<g filter="url(#filter0_f)">
<path d="M55.5 29.2L21.5 67.2H55.5L72.5 48.2L55.5 29.2Z" fill="black" fill-opacity="0.24"/>
</g>
<g filter="url(#filter1_f)">
<path d="M55.5 30L21.5 68H55.5L72.5 49L55.5 30Z" fill="black" fill-opacity="0.32"/>
</g>
<path d="M21.5 67L55.5 29L72.5 48L55.5 67H21.5Z" fill="url(#paint1_linear)"/>
<path d="M21.5 67L55.5 29L64 38.5L38.5 67H21.5Z" fill="url(#paint2_linear)"/>
</g>
</g>
</g>
</svg>
