<svg width="806" height="238" xmlns="http://www.w3.org/2000/svg" overflow="hidden"><defs><clipPath id="a"><path d="M116 83h806v238H116z"/></clipPath><clipPath id="b"><path d="M270 140h54v55h-54z"/></clipPath><clipPath id="c"><path d="M270 140h54v55h-54z"/></clipPath><clipPath id="d"><path d="M270 140h54v55h-54z"/></clipPath><clipPath id="e"><path d="M539 175h41v41h-41z"/></clipPath><clipPath id="f"><path d="M539 175h41v41h-41z"/></clipPath><clipPath id="g"><path d="M539 175h41v41h-41z"/></clipPath><clipPath id="h"><path d="M538 106h41v41h-41z"/></clipPath><clipPath id="i"><path d="M538 106h41v41h-41z"/></clipPath><clipPath id="j"><path d="M538 106h41v41h-41z"/></clipPath><clipPath id="k"><path d="M816 110h41v41h-41z"/></clipPath><clipPath id="l"><path d="M816 110h41v41h-41z"/></clipPath><clipPath id="m"><path d="M816 110h41v41h-41z"/></clipPath><clipPath id="n"><path d="M817 177h41v41h-41z"/></clipPath><clipPath id="o"><path d="M817 177h41v41h-41z"/></clipPath><clipPath id="p"><path d="M817 177h41v41h-41z"/></clipPath></defs><g clip-path="url(#a)" transform="translate(-116 -83)"><path stroke="#2F528F" stroke-width="1.333" stroke-miterlimit="8" fill="#FFF" d="M117.5 84.5h803v235h-803z"/><path d="M684.37 128.86V151h-28.543v-42.302L670 100l14.37 8.698v20.162m-28.543-14.627H645V151h10.827m-6.693-30.837h6.693m-6.693 5.139h6.693m-6.693 5.338h6.693m-6.693 5.337h6.693m-6.693 5.337h6.693M684.37 151H695v-36.767h-10.63m6.693 5.93h-6.693m6.693 5.139h-6.693m6.693 5.338h-6.693m6.693 5.337h-6.693m6.693 5.337h-6.693m-20.472-27.279v-.988h-1.772v1.976h1.772v-.988m7.086 0v-.988h-1.968v1.976h1.968v-.988m7.087 0v-.988h-1.969v1.976h1.969v-.988m-14.173 7.512v-.989h-1.772v1.977h1.772v-.988m7.086 0v-.989h-1.968v1.977h1.968v-.988m7.087 0v-.989h-1.969v1.977h1.969v-.988m-14.173 7.511v-.988h-1.772v1.977h1.772v-.989m7.086 0v-.988h-1.968v1.977h1.968v-.989m7.087 0v-.988h-1.969v1.977h1.969v-.989m-14.173 7.512v-.989h-1.772v1.977h1.772v-.988m7.086.197v-1.186h-1.968v1.977h1.968v-.791m7.087-.395v-.791h-1.969v1.977h1.969v-1.186M677.087 151v-8.105H663.11V151" stroke="#000" stroke-width="1.667" stroke-miterlimit="8" fill="none"/><g clip-path="url(#b)"><g clip-path="url(#c)"><g clip-path="url(#d)"><path d="M310.5 140v47.266l-40.5-6.153 14.15 4.846L310.5 195l13.5-5.723v-43.554zm-33.75 29.219-4.219-.988v-8.758l3.004-3.798 11.34-4.452v-3.214l8.767 7.013-18.892 3.884zm18.563 2.578v-16.904l8.437-1.255v19.07l-7.594 6.239-11.812-3.893v3.91l-7.906-9.745z" fill="#0078D7"/></g></g></g><text font-family="Calibri,Calibri_MSFontService,sans-serif" font-weight="400" font-size="24" transform="translate(154.892 261)">Power Platform <tspan x="22.613" y="29">1:1 DevOps</tspan></text><path d="M439.268 162.442V195h-42.244v-62.209L418 120l21.268 12.791v29.651m-42.244-21.512H381V195h16.024m-9.906-45.349h9.906m-9.906 7.558h9.906m-9.906 7.849h9.906m-9.906 7.849h9.906m-9.906 7.849h9.906M439.268 195H455v-54.07h-15.732m9.905 8.721h-9.905m9.905 7.558h-9.905m9.905 7.849h-9.905m9.905 7.849h-9.905m9.905 7.849h-9.905m-30.299-40.116v-1.454h-2.623v2.907h2.623v-1.453m10.488 0v-1.454h-2.914v2.907h2.914v-1.453m10.488 0v-1.454h-2.914v2.907h2.914v-1.453m-20.976 11.046v-1.453h-2.623v2.907h2.623v-1.454m10.488 0v-1.453h-2.914v2.907h2.914v-1.454m10.488 0v-1.453h-2.914v2.907h2.914v-1.454m-20.976 11.047v-1.454h-2.623v2.907h2.623v-1.453m10.488 0v-1.454h-2.914v2.907h2.914v-1.453m10.488 0v-1.454h-2.914v2.907h2.914v-1.453m-20.976 11.046v-1.453h-2.623v2.907h2.623v-1.454m10.488.291v-1.744h-2.914v2.907h2.914v-1.163m10.488-.582v-1.162h-2.914v2.907h2.914v-1.745M428.488 195v-11.919h-20.685V195" stroke="#000" stroke-width="1.667" stroke-miterlimit="8" fill="none"/><g clip-path="url(#e)"><g clip-path="url(#f)"><g clip-path="url(#g)"><path d="M569.75 175v35.234L539 205.648l10.743 3.613L569.75 216l10.25-4.267v-32.466zm-25.625 21.781-3.203-.736v-6.528l2.281-2.832 8.609-3.318v-2.396l6.657 5.227-14.344 2.896zm14.094 1.922v-12.601l6.406-.935v14.215l-5.766 4.651-8.968-2.902v2.915l-6.003-7.265z" fill="#0078D7"/></g></g></g><text font-family="Calibri,Calibri_MSFontService,sans-serif" font-weight="400" font-size="24" transform="translate(405.27 261)">Power Platform <tspan x="15.693" y="29">1: M DevOps</tspan></text><path d="M499 175h24v38h-8.989v-11.69h-6.003V213H499v-38m6.002 4.385v5.85m6.003-5.85v5.85m6.002-5.85v5.85m-12.005 2.92v5.85m6.003-5.85v5.85m6.002-5.85v5.85" stroke="#000" stroke-width="1.667" stroke-linecap="square" stroke-miterlimit="8" fill="none"/><g clip-path="url(#h)"><g clip-path="url(#i)"><g clip-path="url(#j)"><path d="M568.75 106v35.234L538 136.648l10.743 3.613L568.75 147l10.25-4.267v-32.466zm-25.625 21.781-3.203-.736v-6.528l2.281-2.832 8.609-3.318v-2.396l6.657 5.227-14.344 2.896zm14.094 1.922v-12.601l6.406-.935v14.215l-5.766 4.651-8.968-2.902v2.915l-6.003-7.265z" fill="#0078D7"/></g></g></g><path d="M498 106h24v39h-8.989v-11.998h-6.003V145H498v-39m6.002 4.5v6.004m6.003-6.004v6.004m6.002-6.004v6.004m-12.005 2.997v6.004m6.003-6.004v6.004m6.002-6.004v6.004" stroke="#000" stroke-width="1.667" stroke-linecap="square" stroke-miterlimit="8" fill="none"/><path d="m464.7 145.762 14.597-10.986-.4-.533L464.3 145.23zm15.737-7.255 3.986-8.007-8.797 1.615zM465.701 181.234l14.596 10.986-.401.533-14.596-10.987zm15.736 7.255 3.986 8.007-8.797-1.615zM230.5 168.833h23.1v-.666h-23.1zm21.767 3.667 8-4-8-4z" fill="#4472C4"/><path d="M196.268 165.442V198h-42.244v-62.209L175 123l21.268 12.791v29.651m-42.244-21.512H138V198h16.024m-9.906-45.349h9.906m-9.906 7.558h9.906m-9.906 7.849h9.906m-9.906 7.849h9.906m-9.906 7.849h9.906M196.268 198H212v-54.07h-15.732m9.905 8.721h-9.905m9.905 7.558h-9.905m9.905 7.849h-9.905m9.905 7.849h-9.905m9.905 7.849h-9.905m-30.299-40.116v-1.454h-2.623v2.907h2.623v-1.453m10.488 0v-1.454h-2.914v2.907h2.914v-1.453m10.488 0v-1.454h-2.914v2.907h2.914v-1.453m-20.976 11.046v-1.453h-2.623v2.907h2.623v-1.454m10.488 0v-1.453h-2.914v2.907h2.914v-1.454m10.488 0v-1.453h-2.914v2.907h2.914v-1.454m-20.976 11.047v-1.454h-2.623v2.907h2.623v-1.453m10.488 0v-1.454h-2.914v2.907h2.914v-1.453m10.488 0v-1.454h-2.914v2.907h2.914v-1.453m-20.976 11.046v-1.453h-2.623v2.907h2.623v-1.454m10.488.291v-1.744h-2.914v2.907h2.914v-1.163m10.488-.582v-1.162h-2.914v2.907h2.914v-1.745M185.488 198v-11.919h-20.685V198" stroke="#000" stroke-width="1.667" stroke-miterlimit="8" fill="none"/><g clip-path="url(#k)"><g clip-path="url(#l)"><g clip-path="url(#m)"><path d="M846.75 110v35.234L816 140.648l10.743 3.613L846.75 151l10.25-4.267v-32.466zm-25.625 21.781-3.203-.736v-6.528l2.281-2.832 8.609-3.318v-2.396l6.657 5.227-14.344 2.896zm14.094 1.922v-12.601l6.406-.935v14.215l-5.766 4.651-8.968-2.902v2.915l-6.003-7.265z" fill="#0078D7"/></g></g></g><path d="M776 110h24v38h-8.989v-11.69h-6.003V148H776v-38m6.002 4.385v5.85m6.003-5.85v5.85m6.002-5.85v5.85m-12.005 2.92v5.85m6.003-5.85v5.85m6.002-5.85v5.85" stroke="#000" stroke-width="1.667" stroke-linecap="square" stroke-miterlimit="8" fill="none"/><path d="M715.5 130.833h23.1v-.666h-23.1zm21.767 3.667 8-4-8-4z" fill="#4472C4"/><path d="M684.37 196.295V218h-28.543v-41.473L670 168l14.37 8.527v19.768m-28.543-14.342H645V218h10.827m-6.693-30.233h6.693m-6.693 5.039h6.693m-6.693 5.233h6.693m-6.693 5.232h6.693m-6.693 5.233h6.693M684.37 218H695v-36.047h-10.63m6.693 5.814h-6.693m6.693 5.039h-6.693m6.693 5.233h-6.693m6.693 5.232h-6.693m6.693 5.233h-6.693m-20.472-26.744v-.969h-1.772v1.938h1.772v-.969m7.086 0v-.969h-1.968v1.938h1.968v-.969m7.087 0v-.969h-1.969v1.938h1.969v-.969m-14.173 7.364v-.969h-1.772v1.938h1.772v-.969m7.086 0v-.969h-1.968v1.938h1.968v-.969m7.087 0v-.969h-1.969v1.938h1.969v-.969m-14.173 7.364v-.969h-1.772v1.938h1.772v-.969m7.086 0v-.969h-1.968v1.938h1.968v-.969m7.087 0v-.969h-1.969v1.938h1.969v-.969m-14.173 7.365v-.969h-1.772v1.938h1.772v-.969m7.086.194v-1.163h-1.968v1.938h1.968v-.775m7.087-.388v-.775h-1.969v1.938h1.969v-1.163M677.087 218v-7.946H663.11V218" stroke="#000" stroke-width="1.667" stroke-miterlimit="8" fill="none"/><g clip-path="url(#n)"><g clip-path="url(#o)"><g clip-path="url(#p)"><path d="M847.75 177v35.234L817 207.648l10.743 3.613L847.75 218l10.25-4.267v-32.466zm-25.625 21.781-3.203-.736v-6.528l2.281-2.832 8.609-3.318v-2.396l6.657 5.227-14.344 2.896zm14.094 1.922v-12.601l6.406-.935v14.215l-5.766 4.651-8.968-2.902v2.915l-6.003-7.265z" fill="#0078D7"/></g></g></g><path d="M777 177h23v39h-8.615v-11.998h-5.752V216H777v-39m5.752 4.5v6.004m5.753-6.004v6.004m5.752-6.004v6.004m-11.505 2.997v6.004m5.753-6.004v6.004m5.752-6.004v6.004" stroke="#000" stroke-width="1.667" stroke-linecap="square" stroke-miterlimit="8" fill="none"/><path d="M715.5 198.833h23.1v-.666h-23.1zm21.767 3.667 8-4-8-4z" fill="#4472C4"/><text font-family="Calibri,Calibri_MSFontService,sans-serif" font-weight="400" font-size="24" transform="translate(632.942 265)">Multiple Power <tspan x="155.047" y="0">Platform </tspan><tspan x="-6.467" y="29">Environments and </tspan><tspan x="175.86" y="29">DevOps</tspan></text></g></svg>