<svg width="998" height="522" xmlns="http://www.w3.org/2000/svg" overflow="hidden"><defs><clipPath id="a"><path d="M16 18h998v522H16z"/></clipPath><clipPath id="b"><path d="M39 484h41v41H39z"/></clipPath><clipPath id="c"><path d="M39 484h41v41H39z"/></clipPath><clipPath id="d"><path d="M39 484h41v41H39z"/></clipPath><clipPath id="e"><path d="M704 484h41v41h-41z"/></clipPath><clipPath id="f"><path d="M704 484h41v41h-41z"/></clipPath><clipPath id="g"><path d="M704 484h41v41h-41z"/></clipPath><clipPath id="h"><path d="M367 487h40v40h-40z"/></clipPath><clipPath id="i"><path d="M367 487h40v40h-40z"/></clipPath><clipPath id="j"><path d="M367 487h40v40h-40z"/></clipPath></defs><g clip-path="url(#a)" transform="translate(-16 -18)"><path stroke="#2F528F" stroke-width="1.333" stroke-miterlimit="8" fill="#FFF" d="M18.5 19.5h994v520h-994z"/><text font-family="Segoe UI,Segoe UI_MSFontService,sans-serif" font-weight="400" font-size="24" transform="translate(41.671 186)">Demo Deployment<tspan fill="#0563C1" font-size="15" x="-14.434" y="38">https://crm765191.onmicrosoft.</tspan><tspan fill="#0563C1" font-size="15" x="189.567" y="38">com</tspan></text><path d="M27.238 224.633h232v1h-232z" fill="#0563C1" fill-rule="evenodd"/><text fill="#0563C1" font-family="Segoe UI,Segoe UI_MSFontService,sans-serif" font-weight="400" font-size="15" transform="translate(27.238 242)">https://dev.azure.com/<tspan x="146.5" y="0">crm765191</tspan></text><path d="M27.238 242.633h218v1h-218z" fill="#0563C1" fill-rule="evenodd"/><text font-family="Segoe UI,Segoe UI_MSFontService,sans-serif" font-weight="400" font-size="24" transform="translate(334.792 186)">Enterprise <tspan x="111.98" y="0">Deployment</tspan></text><path d="M99.928 105.736h29.59V136h-29.59v-30.264zm9.662 9.171h-1.51v1.528h1.51v-1.528zm0 11.005h-1.51v1.528h1.51v-1.528zm11.172-11.005h-1.51v1.528h1.51v-1.528zm0 11.005h-1.51v1.528h1.51v-1.528zm48.31-11.005h-1.208v1.528h1.208v-1.528zm0 11.005h-1.208v1.528h1.208v-1.528zm11.474-11.005h-1.51v1.528h1.51v-1.528zm0 11.005h-1.51v1.528h1.51v-1.528zM159.41 136H189v-30.264h-29.59V136zm-14.795-59-15.097 13.757V136h29.892V90.757L144.615 77zm8.152 17.73h-16.908v7.949h16.908v-7.948zm0 41.27v-14.979h-8.454V136m0-14.979h-8.454V136m8.454-25.679c-.906 0-1.812.917-1.812 1.834 0 1.223.906 2.14 1.812 2.14 1.208 0 1.812-.917 1.812-2.14 0-.917-.604-1.834-1.812-1.834zM85.737 99.927l9.36-3.974-9.36-5.197V136M80 136h11.474M477.268 103.442V136h-42.244V73.79L456 61l21.268 12.79v29.652M435.024 81.93H419V136h16.024m-9.906-45.349h9.906m-9.906 7.558h9.906m-9.906 7.849h9.906m-9.906 7.849h9.906m-9.906 7.849h9.906M477.268 136H493V81.93h-15.732m9.905 8.721h-9.905m9.905 7.558h-9.905m9.905 7.849h-9.905m9.905 7.849h-9.905m9.905 7.849h-9.905m-30.299-40.117v-1.453h-2.623v2.907h2.623v-1.454m10.488 0v-1.453h-2.914v2.907h2.914v-1.454m10.488 0v-1.453h-2.914v2.907h2.914v-1.454m-20.976 11.047v-1.453h-2.623v2.906h2.623v-1.453m10.488 0v-1.453h-2.914v2.906h2.914v-1.453m10.488 0v-1.453h-2.914v2.906h2.914v-1.453m-20.976 11.047v-1.454h-2.623v2.907h2.623v-1.453m10.488 0v-1.454h-2.914v2.907h2.914v-1.453m10.488 0v-1.454h-2.914v2.907h2.914v-1.453m-20.976 11.046v-1.453h-2.623v2.907h2.623v-1.454m10.488.291v-1.744h-2.914v2.907h2.914v-1.163m10.488-.582v-1.162h-2.914v2.907h2.914v-1.745M466.488 136v-11.919h-20.685V136" stroke="#000" stroke-width="1.667" stroke-miterlimit="8" fill="none"/><text fill="#0563C1" font-family="Segoe UI,Segoe UI_MSFontService,sans-serif" font-weight="400" font-size="15" transform="translate(319.222 224)">https<tspan x="33.167" y="0">://contoso.</tspan>onmicrosoft.com</text><path d="M319.222 224.633h213v1h-213z" fill="#0563C1" fill-rule="evenodd"/><text fill="#0563C1" font-family="Segoe UI,Segoe UI_MSFontService,sans-serif" font-weight="400" font-size="15" transform="translate(319.222 242)">https://dev.azure.com/contoso</text><path d="M319.222 242.633h199v1h-199z" fill="#0563C1" fill-rule="evenodd"/><text font-family="Segoe UI,Segoe UI_MSFontService,sans-serif" font-weight="400" font-size="24" transform="translate(691.694 186)">Multi Tenant <tspan x="137.693" y="0">Deployment</tspan><tspan fill="#0563C1" font-size="15" x="-45.066" y="38">https://</tspan><tspan fill="#0563C1" font-size="15" x="2.601" y="38">contoso</tspan><tspan fill="#0563C1" font-size="15" x="54.934" y="38">-</tspan><tspan fill="#0563C1" font-size="15" x="60.767" y="38">dev.</tspan><tspan fill="#0563C1" font-size="15" x="87.267" y="38">onmicrosoft.</tspan><tspan fill="#0563C1" font-size="15" x="168.767" y="38">com</tspan></text><path d="M646.629 224.633h242v1h-242z" fill="#0563C1" fill-rule="evenodd"/><text fill="#0563C1" font-family="Segoe UI,Segoe UI_MSFontService,sans-serif" font-weight="400" font-size="15" transform="translate(646.629 242)">https://contoso.onmicrosoft.com</text><path d="M646.629 242.633h213v1h-213z" fill="#0563C1" fill-rule="evenodd"/><text fill="#0563C1" font-family="Segoe UI,Segoe UI_MSFontService,sans-serif" font-weight="400" font-size="15" transform="translate(646.629 259)">https<tspan x="33.167" y="0">://dev.azure.com/contoso</tspan></text><path d="M646.629 259.633h199v1h-199z" fill="#0563C1" fill-rule="evenodd"/><text font-family="Arial,Arial_MSFontService,sans-serif" font-weight="400" font-size="15" transform="translate(309.708 299)">•<tspan font-family="Segoe UI,Segoe UI_MSFontService,sans-serif" x="18" y="0">Integrated into </tspan><tspan font-family="Segoe UI,Segoe UI_MSFontService,sans-serif" font-weight="700" x="119" y="0">S</tspan><tspan font-family="Segoe UI,Segoe UI_MSFontService,sans-serif" font-weight="700" x="127.167" y="0">ingle</tspan><tspan font-family="Segoe UI,Segoe UI_MSFontService,sans-serif" x="165.333" y="0">Enterprise </tspan><tspan font-family="Segoe UI,Segoe UI_MSFontService,sans-serif" x="234.167" y="0">AAD </tspan><tspan font-family="Segoe UI,Segoe UI_MSFontService,sans-serif" x="18" y="18">tenant</tspan><tspan x="0" y="35">•</tspan><tspan font-family="Segoe UI,Segoe UI_MSFontService,sans-serif" x="18" y="35">Multiple environments Development, Test </tspan><tspan font-family="Segoe UI,Segoe UI_MSFontService,sans-serif" x="18" y="53">and Production</tspan><tspan x="0" y="71">•</tspan><tspan font-family="Segoe UI,Segoe UI_MSFontService,sans-serif" x="18" y="71">End to end ALM Process for </tspan><tspan font-family="Segoe UI,Segoe UI_MSFontService,sans-serif" x="201.667" y="71">enterprise wide</tspan><tspan font-family="Segoe UI,Segoe UI_MSFontService,sans-serif" x="18" y="88">applications with thousands of users</tspan><tspan x="0" y="106">•</tspan><tspan font-family="Segoe UI,Segoe UI_MSFontService,sans-serif" x="18" y="106">Fusion Development Teams of Makers, Pro </tspan><tspan font-family="Segoe UI,Segoe UI_MSFontService,sans-serif" x="18" y="123">Developers, Administrators </tspan><tspan x="332.241" y="0">•</tspan><tspan font-family="Segoe UI,Segoe UI_MSFontService,sans-serif" font-weight="700" x="350.241" y="0">Multiple</tspan><tspan font-family="Segoe UI,Segoe UI_MSFontService,sans-serif" x="412.408" y="0">AAD tenants </tspan><tspan font-family="Segoe UI,Segoe UI_MSFontService,sans-serif" x="497.741" y="0">–</tspan><tspan font-family="Segoe UI,Segoe UI_MSFontService,sans-serif" x="509.075" y="0">Internal in organization or </tspan><tspan font-family="Segoe UI,Segoe UI_MSFontService,sans-serif" x="350.241" y="18">with partners</tspan><tspan x="332.241" y="35">•</tspan><tspan font-family="Segoe UI,Segoe UI_MSFontService,sans-serif" x="350.241" y="35">Multiple environments Development, Test and </tspan><tspan font-family="Segoe UI,Segoe UI_MSFontService,sans-serif" x="350.241" y="53">Production</tspan><tspan x="332.241" y="71">•</tspan><tspan font-family="Segoe UI,Segoe UI_MSFontService,sans-serif" x="350.241" y="71">End to end ALM Process for </tspan><tspan font-family="Segoe UI,Segoe UI_MSFontService,sans-serif" x="533.908" y="71">enterprise wide</tspan><tspan font-family="Segoe UI,Segoe UI_MSFontService,sans-serif" x="350.241" y="88">applications with thousands of </tspan><tspan font-family="Segoe UI,Segoe UI_MSFontService,sans-serif" x="552.075" y="88">users or applications </tspan><tspan font-family="Segoe UI,Segoe UI_MSFontService,sans-serif" x="350.241" y="106">shared across organizations</tspan><tspan x="332.241" y="123">•</tspan><tspan font-family="Segoe UI,Segoe UI_MSFontService,sans-serif" x="350.241" y="123">Fusion Development Teams of Makers, Pro </tspan><tspan font-family="Segoe UI,Segoe UI_MSFontService,sans-serif" x="350.241" y="141">Developers, Administrators </tspan><tspan font-family="Segoe UI,Segoe UI_MSFontService,sans-serif" x="528.908" y="141">from within and outside </tspan><tspan font-family="Segoe UI,Segoe UI_MSFontService,sans-serif" x="350.241" y="159">the organization</tspan><tspan x="-282.47" y="3">•</tspan><tspan font-family="Segoe UI,Segoe UI_MSFontService,sans-serif" x="-264.47" y="3">Separated from Enterprise </tspan><tspan font-family="Segoe UI,Segoe UI_MSFontService,sans-serif" x="-264.47" y="21">Environment</tspan><tspan x="-282.47" y="38">•</tspan><tspan font-family="Segoe UI,Segoe UI_MSFontService,sans-serif" x="-264.47" y="38">Use Trial </tspan><tspan font-family="Segoe UI,Segoe UI_MSFontService,sans-serif" x="-205.304" y="38">environment / </tspan><tspan font-family="Segoe UI,Segoe UI_MSFontService,sans-serif" x="-109.304" y="38">licences</tspan><tspan x="-282.47" y="56">•</tspan><tspan font-family="Segoe UI,Segoe UI_MSFontService,sans-serif" x="-264.47" y="56">Demonstrate end to end ALM </tspan><tspan font-family="Segoe UI,Segoe UI_MSFontService,sans-serif" x="-264.47" y="74">Process</tspan><tspan x="-282.47" y="91">•</tspan><tspan font-family="Segoe UI,Segoe UI_MSFontService,sans-serif" x="-264.47" y="91">Learn and </tspan><tspan font-family="Segoe UI,Segoe UI_MSFontService,sans-serif" x="-196.47" y="91">Explore</tspan><tspan x="-282.47" y="109">•</tspan><tspan font-family="Segoe UI,Segoe UI_MSFontService,sans-serif" x="-264.47" y="109">Typical Users: 1</tspan><tspan font-family="Segoe UI,Segoe UI_MSFontService,sans-serif" x="-165.47" y="109">-</tspan><tspan font-family="Segoe UI,Segoe UI_MSFontService,sans-serif" x="-159.637" y="109">5 Users</tspan></text><path d="M828.37 73.79V136h-12.843v-21.483h-13.745V136h-13.519V73.79h40.107m-19.828 0V60.587H761V136m89 0V67.525L821.385 40v33.79m-46.415 0h-1.352v.895h1.352v-.895m0 13.427h-1.352v1.342h1.352v-1.342m0 13.426h-1.352v1.343h1.352v-1.343m0 13.651h-1.352v1.119h1.352v-1.119m0 13.426h-1.352v1.119h1.352v-1.119m27.038-40.503h-1.127v1.342h1.127v-1.342m0 13.874h-1.127v.895h1.127v-.895m13.744-13.874H814.4v1.342h1.352v-1.342m0 13.874H814.4v.895h1.352v-.895" stroke="#000" stroke-width="1.667" stroke-miterlimit="8" fill="none"/><g clip-path="url(#b)"><g clip-path="url(#c)"><g clip-path="url(#d)"><path d="m75.772 490.748-21.867 20.671L43.4 500.656l-3.63 3.46 13.965 14.35 3.673-3.417 21.824-20.714z" fill="#00B050"/></g></g></g><g clip-path="url(#e)"><g clip-path="url(#f)"><g clip-path="url(#g)" stroke="red" stroke-width="2.05" fill="red"><path d="M724.5 488.271c-8.966-.003-16.236 7.263-16.239 16.229-.002 8.966 7.264 16.236 16.23 16.239 8.965.002 16.236-7.264 16.238-16.23v-.005c.005-8.96-7.255-16.228-16.216-16.233h-.013zm0 31.613c-8.494.003-15.382-6.881-15.384-15.375-.003-8.494 6.881-15.382 15.375-15.384 8.494-.003 15.381 6.881 15.384 15.375v.006c-.008 8.488-6.886 15.368-15.375 15.379z"/><path d="m730.497 497.905-5.998 5.997-5.997-5.997-.604.603 5.997 5.998-5.997 5.998.604.603 5.997-5.997 5.998 5.997.604-.603-5.998-5.998 5.998-5.998-.604-.603z"/></g></g></g><text font-family="Segoe UI,Segoe UI_MSFontService,sans-serif" font-weight="400" font-size="15" transform="translate(100.59 510)">AA4AM Supported</text><g clip-path="url(#h)"><g clip-path="url(#i)"><g clip-path="url(#j)"><path d="m402.875 493.583-21.333 20.167-10.25-10.5-3.542 3.375 13.625 14 3.583-3.333 21.292-20.209z" fill="#00B050"/></g></g></g><text font-family="Segoe UI,Segoe UI_MSFontService,sans-serif" font-weight="400" font-size="15" transform="translate(428.308 510)">AA4AM Supported<tspan x="334.523" y="0">AA4AM Supported</tspan></text></g></svg>