<svg xmlns="http://www.w3.org/2000/svg" width="18" height="18" viewBox="0 0 18 18">
  <defs>
    <linearGradient id="a526a6c9-0b9f-497c-a35f-5e7a00d68875" x1="9.231" y1="18.05" x2="9.231" y2="0.05" gradientUnits="userSpaceOnUse">
      <stop offset="0" stop-color="#0078d4" />
      <stop offset="1" stop-color="#5ea0ef" />
    </linearGradient>
  </defs>
  <g id="a7b189a8-2854-4650-9e14-58b153e92516">
    <g>
      <path d="M10.3.179H2.591A.612.612,0,0,0,1.98.79V17.31a.612.612,0,0,0,.611.611h13.28a.612.612,0,0,0,.612-.611V6.379a.611.611,0,0,0-.612-.611H11.463a.6.6,0,0,1-.6-.6h0V.79A.6.6,0,0,0,10.3.179Z" fill="#5ea0ef" />
      <path d="M9.972.951V5.1A1.523,1.523,0,0,0,11.5,6.626h4.173V17.149H2.8V.951H9.982M10.3.05H2.5a.611.611,0,0,0-.622.6V17.439a.611.611,0,0,0,.611.611H15.968a.611.611,0,0,0,.622-.6V6.336a.611.611,0,0,0-.611-.611H11.5a.612.612,0,0,1-.612-.612V.662A.611.611,0,0,0,10.3.05Z" fill="url(#a526a6c9-0b9f-497c-a35f-5e7a00d68875)" />
      <path d="M16.354,5.832,10.669.179v4.58a1.072,1.072,0,0,0,1.073,1.073Z" fill="#0078d4" />
    </g>
    <path d="M4.715,10.591V9.175a.671.671,0,0,1-.2.075l-.236.064v-.44a2.345,2.345,0,0,0,.332-.128A1.369,1.369,0,0,0,4.941,8.6h.343v2Z" fill="#50e6ff" />
    <path d="M13.792,9.968H7.106a.375.375,0,1,1,0-.75h6.686a.375.375,0,0,1,0,.75Z" fill="#c3f1ff" />
    <path d="M4.3,15.2v-.161a1.086,1.086,0,0,1,0-.279,2.258,2.258,0,0,1,.118-.236,2.033,2.033,0,0,1,.3-.279.946.946,0,0,0,.226-.182.1.1,0,0,1,.075-.1.151.151,0,0,0,0-.118c0-.139-.075-.2-.236-.2a.724.724,0,0,0-.462.183v-.483a1.178,1.178,0,0,1,.3-.118,1.368,1.368,0,0,1,.3,0,.749.749,0,0,1,.494.161A.549.549,0,0,1,5.6,13.8a.8.8,0,0,1-.1.365,1.217,1.217,0,0,1-.343.3l-.214.129a.193.193,0,0,0-.065.107h.783v.451Z" fill="#50e6ff" />
    <path d="M13.792,14.582H7.106a.375.375,0,0,1,0-.75h6.686a.375.375,0,1,1,0,.75Z" fill="#c3f1ff" />
  </g>
</svg>