<svg xmlns="http://www.w3.org/2000/svg" viewBox="0 0 16 16">
  <g id="canvas">
    <path d="M16,0V16H0V0Z" fill="none" opacity="0" />
  </g>
  <g id="level-1">
    <path d="M9,1.125a6.885,6.885,0,0,1,1.864.25,6.979,6.979,0,0,1,3.085,1.8,6.987,6.987,0,0,1,1.093,8.485A7.01,7.01,0,0,1,7.32,14.922a7.024,7.024,0,0,1-1.559-.589,7.1,7.1,0,0,1-1.375-.947,7,7,0,0,1-1.128-1.261H.664a.642.642,0,0,1-.469-.2A.642.642,0,0,1,0,11.461V4.789A.64.64,0,0,1,.2,4.32a.642.642,0,0,1,.469-.2H3.258A6.978,6.978,0,0,1,9,1.125ZM5.992,7.2a1.792,1.792,0,0,0-.153-.777,1.381,1.381,0,0,0-.417-.527,1.724,1.724,0,0,0-.625-.3A3.068,3.068,0,0,0,4.016,5.5H1.9v5.242H3.125V8.914h.828A2.5,2.5,0,0,0,4.7,8.8a2.189,2.189,0,0,0,.653-.328,1.663,1.663,0,0,0,.465-.535A1.533,1.533,0,0,0,5.992,7.2ZM3.875,6.523a1.068,1.068,0,0,1,.609.153.624.624,0,0,1,.227.558.491.491,0,0,1-.082.293.632.632,0,0,1-.207.184.909.909,0,0,1-.281.1,1.753,1.753,0,0,1-.3.027H3.125V6.523ZM9,14.125a5.938,5.938,0,0,0,2.879-.739,6.039,6.039,0,0,0,2.129-1.96,5.952,5.952,0,0,0,.969-2.809H8.508V2.148a5.905,5.905,0,0,0-2.18.606,6.026,6.026,0,0,0-1.8,1.371H7.336A.666.666,0,0,1,8,4.789v6.672a.666.666,0,0,1-.664.664H4.531a6.091,6.091,0,0,0,.942.848,6.163,6.163,0,0,0,1.082.629,5.874,5.874,0,0,0,1.187.39A6,6,0,0,0,9,14.125ZM9.5,2.148V7.625h5.477a5.912,5.912,0,0,0-.551-2.051A6.007,6.007,0,0,0,11.547,2.7,5.938,5.938,0,0,0,9.5,2.148Z" fill="#d24726" />
  </g>
</svg>